<svg xmlns="http://www.w3.org/2000/svg" viewBox="0 0 860 470" width="860" height="470" fill="none">
  <rect width="860" height="470" rx="28" fill="#0F141A"/>
  <rect x="24" y="24" width="812" height="422" rx="22" fill="#171E26" stroke="#344152"/>

  <text x="56" y="72" fill="#F3EFE8" font-family="Inter, Arial, sans-serif" font-size="30" font-weight="700">TensorCraft-HPC architecture</text>
  <text x="56" y="98" fill="#A5B2C0" font-family="Inter, Arial, sans-serif" font-size="14">Whitepaper surface, kernel system, and hardware-aware primitives shown as one evaluable stack.</text>

  <g transform="translate(56 136)">
    <rect width="748" height="82" rx="20" fill="#1D2630" stroke="#344152"/>
    <text x="24" y="28" fill="#F0B189" font-family="JetBrains Mono, monospace" font-size="12" font-weight="600">PUBLIC SURFACE</text>
    <g transform="translate(24 40)">
      <rect width="208" height="24" rx="12" fill="#24303C"/>
      <text x="104" y="16" text-anchor="middle" fill="#F3EFE8" font-family="Inter, Arial, sans-serif" font-size="12" font-weight="600">Whitepaper and evidence pages</text>
      <rect x="232" width="152" height="24" rx="12" fill="#24303C"/>
      <text x="308" y="16" text-anchor="middle" fill="#F3EFE8" font-family="Inter, Arial, sans-serif" font-size="12" font-weight="600">Kernel Atlas</text>
      <rect x="408" width="152" height="24" rx="12" fill="#24303C"/>
      <text x="484" y="16" text-anchor="middle" fill="#F3EFE8" font-family="Inter, Arial, sans-serif" font-size="12" font-weight="600">Academy routes</text>
      <rect x="584" width="140" height="24" rx="12" fill="#24303C"/>
      <text x="654" y="16" text-anchor="middle" fill="#F3EFE8" font-family="Inter, Arial, sans-serif" font-size="12" font-weight="600">Bilingual mirror</text>
    </g>
  </g>

  <path d="M430 218v34" stroke="#C96E32" stroke-width="3" stroke-linecap="round"/>
  <path d="M430 244l-8 8h16l-8-8Z" fill="#C96E32"/>

  <g transform="translate(56 252)">
    <rect width="748" height="108" rx="24" fill="#0F141A" stroke="#344152"/>
    <text x="24" y="30" fill="#E8E0D6" font-family="JetBrains Mono, monospace" font-size="12" font-weight="600">KERNEL SYSTEM</text>
    <g transform="translate(24 48)">
      <rect width="160" height="38" rx="14" fill="#1D2630" stroke="#405062"/>
      <text x="80" y="23" text-anchor="middle" fill="#F3EFE8" font-family="Inter, Arial, sans-serif" font-size="13" font-weight="600">GEMM path</text>
      <rect x="176" width="160" height="38" rx="14" fill="#1D2630" stroke="#405062"/>
      <text x="256" y="23" text-anchor="middle" fill="#F3EFE8" font-family="Inter, Arial, sans-serif" font-size="13" font-weight="600">Attention path</text>
      <rect x="352" width="160" height="38" rx="14" fill="#1D2630" stroke="#405062"/>
      <text x="432" y="23" text-anchor="middle" fill="#F3EFE8" font-family="Inter, Arial, sans-serif" font-size="13" font-weight="600">Normalization</text>
      <rect x="528" width="172" height="38" rx="14" fill="#1D2630" stroke="#405062"/>
      <text x="614" y="23" text-anchor="middle" fill="#F3EFE8" font-family="Inter, Arial, sans-serif" font-size="13" font-weight="600">Convolution and sparse</text>
    </g>
    <g transform="translate(24 18)">
      <rect x="454" width="124" height="22" rx="11" fill="#5DB7A4" fill-opacity=".14" stroke="#5DB7A4"/>
      <text x="516" y="15" text-anchor="middle" fill="#A8E1D5" font-family="Inter, Arial, sans-serif" font-size="11" font-weight="600">progressive optimization</text>
      <rect x="588" width="112" height="22" rx="11" fill="#C96E32" fill-opacity=".14" stroke="#C96E32"/>
      <text x="644" y="15" text-anchor="middle" fill="#F0B189" font-family="Inter, Arial, sans-serif" font-size="11" font-weight="600">benchmark linked</text>
    </g>
  </g>

  <path d="M430 360v34" stroke="#5DB7A4" stroke-width="3" stroke-linecap="round"/>
  <path d="M430 386l-8 8h16l-8-8Z" fill="#5DB7A4"/>

  <g transform="translate(56 394)">
    <rect width="364" height="36" rx="18" fill="#1D2630" stroke="#344152"/>
    <text x="182" y="23" text-anchor="middle" fill="#F3EFE8" font-family="Inter, Arial, sans-serif" font-size="12" font-weight="600">Memory primitives, feature detection, and RAII tensor wrappers</text>
    <rect x="384" width="420" height="36" rx="18" fill="#1D2630" stroke="#344152"/>
    <text x="594" y="23" text-anchor="middle" fill="#F3EFE8" font-family="Inter, Arial, sans-serif" font-size="12" font-weight="600">Hardware spans SM70 to SM100, surfaced as compile-time capabilities</text>
  </g>
</svg>
